<?xml version="1.0" encoding="UTF-8"?><!DOCTYPE svg PUBLIC "-//W3C//DTD SVG 1.1//EN" "http://www.w3.org/Graphics/SVG/1.1/DTD/svg11.dtd"><svg xmlns="http://www.w3.org/2000/svg" xmlns:xlink="http://www.w3.org/1999/xlink"><symbol id="dots" viewBox="0 0 20 20"><path d="M9.997 15h.008M15 15h.008M5 15h.007M9.997 10h.008M10 5h.008M15 10h.008M15 5h.008M5 10h.007M5 5h.007" stroke="#000" stroke-width="2.083" stroke-linecap="round" stroke-linejoin="round"/></symbol><symbol id="earth" viewBox="0 0 20 20"><path d="M10 18.333A8.333 8.333 0 014.16 4.057M10 18.333c-.802-.595-.674-1.287-.272-1.98.62-1.064.62-1.064.62-2.483s.843-2.084 3.819-1.49c1.337.268 2.312-1.58 4.048-.97M10 18.334a8.336 8.336 0 008.215-6.922M4.159 4.057c.708.074 1.104.453 1.762 1.149 1.25 1.32 2.5 1.43 3.332.99 1.25-.66.2-1.73 1.666-2.31.9-.357 1.07-1.29.645-2.073M4.16 4.057A8.306 8.306 0 0110 1.667c.535 0 1.058.05 1.564.146m6.65 9.598a8.336 8.336 0 00-6.65-9.598" stroke="#000" stroke-width="1.2" stroke-linejoin="round"/></symbol><symbol id="magnifier" viewBox="0 0 20 20"><path d="M18.575 18.424a.6.6 0 00.849-.848l-.849.848zm-5.666-5.666l5.666 5.666.849-.848-5.667-5.667-.848.849z" fill="#000"/><path d="M15.6 7.8A6.8 6.8 0 102 7.8a6.8 6.8 0 0013.6 0z" stroke="#000" stroke-width="1.2" stroke-linejoin="round"/></symbol><symbol id="phone" viewBox="0 0 20 20"><path d="M3.148 9.952c-.79-1.378-1.171-2.503-1.401-3.643-.34-1.686.438-3.333 1.728-4.385.545-.444 1.17-.292 1.492.286l.728 1.306c.576 1.034.865 1.552.808 2.1-.058.549-.447.995-1.224 1.889l-2.13 2.447zm0 0c1.6 2.788 4.109 5.299 6.9 6.9m0 0c1.378.79 2.503 1.171 3.643 1.401 1.686.34 3.334-.438 4.385-1.728.444-.545.292-1.17-.286-1.492l-1.305-.727c-1.035-.577-1.553-.866-2.101-.808-.549.057-.995.446-1.889 1.224l-2.447 2.13z" stroke="#000" stroke-width="1.2" stroke-linejoin="round"/></symbol></svg>