<svg viewBox="0 0 137 24" fill="none" xmlns="http://www.w3.org/2000/svg">
<path d="M47.9151 0.0141551C47.9199 0.065162 47.9199 0.116495 47.9151 0.167502V23.9481H42.0738C42.0301 23.9507 41.9867 23.9382 41.9511 23.9127C41.9158 23.8878 41.8893 23.8523 41.8756 23.8113L36.0343 12.1899C36.0128 12.1337 35.978 12.0835 35.9328 12.0436V23.9339H29.9617V0.132114C29.9594 0.0881079 29.9594 0.0440065 29.9617 0L35.9281 0L38.1174 4.32439L41.8473 11.7959L41.9204 11.9186V0.0141551H47.9151Z" fill="#931F2B"/>
<path d="M65.8987 0.0141551V6.00413H56.9338V10.4866H64.3983V16.4695H56.9173V23.9339H50.958V0L65.8987 0.0141551Z" fill="#931F2B"/>
<path d="M6.02301 0.0140779L6.06784 0.132037C6.34622 0.679368 6.60573 1.2267 6.88647 1.76695L6.95253 1.89907H0.0283203V0.0117188L6.02301 0.0140779Z" fill="#931F2B"/>
<path d="M23.9886 0.0141602V1.26453H17.3711L17.9916 0.0141602H23.9886Z" fill="#931F2B"/>
<path d="M12.0039 12.0082C12.254 11.4963 12.5088 10.9843 12.7353 10.4724C12.7625 10.4489 12.7948 10.432 12.8296 10.4229H23.9437V11.9917H12.0039V12.0082Z" fill="#931F2B"/>
<path d="M11.9968 12.001C11.7609 12.4893 11.5084 12.9706 11.2678 13.4613C11.2555 13.4986 11.2304 13.5303 11.197 13.551C11.1626 13.5702 11.1226 13.5769 11.0838 13.5698H0.0380859V12.001H11.9968Z" fill="#931F2B"/>
<path d="M12.6172 13.2114H23.9413V14.8629H13.5821C13.5369 14.8688 13.491 14.8588 13.4523 14.8345C13.4133 14.8109 13.384 14.7741 13.3698 14.7307C13.1338 14.2707 12.8979 13.8177 12.6832 13.3577L12.6172 13.2114Z" fill="#931F2B"/>
<path d="M0.0380859 10.7578V9.10634H10.4185C10.4615 9.10125 10.5049 9.11052 10.542 9.13272C10.5792 9.15491 10.6079 9.18877 10.6238 9.22902C10.8408 9.70086 11.0956 10.1562 11.3079 10.6162C11.3305 10.6589 11.3502 10.703 11.3669 10.7483L0.0380859 10.7578Z" fill="#931F2B"/>
<path d="M9.94667 7.889H0.0380859V6.17151H8.96524C9.0066 6.16449 9.04911 6.17199 9.08556 6.19274C9.12175 6.21463 9.14862 6.24905 9.16106 6.28947C9.39698 6.7849 9.65177 7.27561 9.8924 7.74981C9.90627 7.79774 9.92443 7.84433 9.94667 7.889Z" fill="#931F2B"/>
<path d="M23.9437 17.7929H15.0355C14.9901 17.7954 14.9451 17.7847 14.9057 17.7623C14.8678 17.7383 14.8388 17.7027 14.8231 17.6608L14.0941 16.2005C14.0711 16.158 14.0514 16.1138 14.0352 16.0684H23.9437V17.7929Z" fill="#931F2B"/>
<path d="M23.9431 7.70478V9.16512H13.4141L13.473 9.03537L14.0864 7.785C14.0994 7.74871 14.1244 7.71793 14.1572 7.69771C14.1902 7.67657 14.229 7.66664 14.2681 7.6694H23.9408L23.9431 7.70478Z" fill="#931F2B"/>
<path d="M0.0380859 16.2781V14.8154H10.5884L10.5435 14.9263C10.3336 15.3345 10.1142 15.7685 9.90892 16.2003C9.89413 16.2317 9.87031 16.258 9.8405 16.2758C9.81036 16.2925 9.77562 16.2992 9.74142 16.2946H0.0380859V16.2781Z" fill="#931F2B"/>
<path d="M23.9429 19.0479V20.8526H16.5752C16.4666 20.8526 16.4147 20.8526 16.3699 20.7347C16.1151 20.2086 15.8532 19.699 15.5961 19.18L15.5371 19.0479H23.9429Z" fill="#931F2B"/>
<path d="M8.46274 4.93784H0.0380859V3.14014H7.44121C7.51435 3.14014 7.57333 3.14014 7.61579 3.22743C7.8871 3.77712 8.16312 4.32445 8.43443 4.87886L8.46274 4.93784Z" fill="#931F2B"/>
<path d="M14.7637 6.47107L14.9618 6.07709C15.1081 5.77747 15.2685 5.47785 15.4077 5.17824C15.4219 5.13737 15.4504 5.10302 15.4879 5.08151C15.5252 5.06058 15.5685 5.05308 15.6106 5.06028H23.9433V6.47579L14.7637 6.47107Z" fill="#931F2B"/>
<path d="M9.22948 17.5215C9.21583 17.5589 9.19927 17.5952 9.17993 17.63L8.58778 18.8285C8.58778 18.8804 8.53587 18.9299 8.44858 18.9299H0.0380859V17.5356L9.22948 17.5215Z" fill="#931F2B"/>
<path d="M17.0566 22.0869H23.9431V23.9554H18.1018C18.0566 23.9602 18.0111 23.9503 17.972 23.9271C17.9342 23.9032 17.9052 23.8675 17.8894 23.8256C17.6276 23.2854 17.3563 22.7522 17.0944 22.219C17.0782 22.1761 17.0656 22.1319 17.0566 22.0869Z" fill="#931F2B"/>
<path d="M7.87978 20.1523V20.2467L7.31358 21.3933C7.30325 21.4251 7.28246 21.4526 7.2546 21.4711C7.22728 21.4907 7.19354 21.4991 7.16023 21.4947H0.0449219V20.1594L7.87978 20.1523Z" fill="#931F2B"/>
<path d="M23.9791 2.51225V3.82632H16.0947L16.1301 3.73903L16.701 2.59482C16.7095 2.5665 16.7269 2.54167 16.7506 2.52405C16.7756 2.50759 16.8058 2.50088 16.8355 2.50517H23.9768L23.9791 2.51225Z" fill="#931F2B"/>
<path d="M0.0283102 23.9482V22.7144H6.60572L6.5609 22.8252C6.38632 23.1673 6.21174 23.5188 6.04424 23.8609C6.04424 23.9199 5.98526 23.9647 5.90504 23.9647H0L0.0283102 23.9482Z" fill="#931F2B"/>
<path d="M124.513 8.88927C124.089 8.58559 123.574 8.43353 123.053 8.45754H121.68V11.876H123.053C123.574 11.9 124.089 11.748 124.513 11.4443C124.702 11.2916 124.852 11.0958 124.949 10.8733C125.047 10.6508 125.09 10.4081 125.075 10.1656C125.092 9.92322 125.05 9.68029 124.952 9.45788C124.854 9.23546 124.703 9.04028 124.513 8.88927Z" fill="#931F2B"/>
<path d="M94.9173 11.1235C95.0856 10.8328 95.1743 10.5028 95.1743 10.1669C95.1743 9.83091 95.0856 9.50091 94.9173 9.21021C94.7387 8.94119 94.4853 8.7304 94.1883 8.6039C93.8597 8.45713 93.5029 8.38463 93.1431 8.39157H91.7725V11.9492H93.1526C93.5115 11.9559 93.8676 11.8834 94.1953 11.7369C94.4907 11.6073 94.7417 11.3941 94.9173 11.1235Z" fill="#931F2B"/>
<path d="M105.265 8.86578C104.867 8.62544 104.424 8.46771 103.964 8.40198C103.503 8.33624 103.034 8.36386 102.585 8.48317C102.135 8.60249 101.714 8.81107 101.347 9.09648C100.98 9.38189 100.674 9.73829 100.447 10.1445C100.148 10.7173 99.9922 11.3538 99.9922 12C99.9922 12.6461 100.148 13.2826 100.447 13.8555C100.735 14.3892 101.161 14.8357 101.681 15.1483C102.08 15.3884 102.523 15.5457 102.983 15.6109C103.444 15.6761 103.913 15.6479 104.363 15.5279C104.812 15.4079 105.233 15.1986 105.6 14.9125C105.967 14.6264 106.273 14.2693 106.499 13.8625C106.796 13.2893 106.951 12.6529 106.951 12.007C106.951 11.3612 106.796 10.7248 106.499 10.1515C106.208 9.62134 105.782 9.17766 105.265 8.86578Z" fill="#931F2B"/>
<path d="M130.076 0.0283203H70.5518V24H130.076L136.125 12.0319L130.076 0.0283203ZM87.4199 13.7611C87.2381 14.3231 86.9479 14.8441 86.5659 15.2946C86.1844 15.7427 85.7114 16.1039 85.1787 16.3539C84.5916 16.6214 83.953 16.7567 83.3079 16.7502C82.6727 16.7556 82.0427 16.6362 81.4536 16.3987C80.8955 16.1728 80.3893 15.8353 79.9662 15.4069C79.5431 14.9785 79.2119 14.4683 78.9929 13.9074C78.5276 12.6922 78.5276 11.3479 78.9929 10.1327C79.2119 9.57185 79.5431 9.0616 79.9662 8.63322C80.3893 8.20484 80.8955 7.86735 81.4536 7.64141C82.043 7.40513 82.6728 7.28574 83.3079 7.2899C83.8406 7.28777 84.3705 7.36733 84.8791 7.52581C85.3429 7.66644 85.7777 7.8894 86.1625 8.18403C86.5505 8.47814 86.8802 8.8422 87.1345 9.25746L86.3465 9.96285C86.0568 9.4753 85.6369 9.07823 85.1339 8.81629C84.5696 8.52694 83.9419 8.38338 83.3079 8.39871C82.6963 8.39102 82.0939 8.54765 81.5636 8.85225C81.0332 9.15685 80.5944 9.59825 80.2928 10.1304C79.9855 10.7094 79.8248 11.355 79.8248 12.0106C79.8248 12.6662 79.9855 13.3118 80.2928 13.8909C80.5948 14.4215 81.0351 14.8601 81.5668 15.1601C82.0973 15.4602 82.6985 15.6125 83.3079 15.6013C83.7256 15.6042 84.1406 15.5347 84.5347 15.3961C84.8828 15.2688 85.2031 15.0758 85.4783 14.8275C85.7413 14.5837 85.9615 14.2974 86.1295 13.9805C86.2978 13.6638 86.4224 13.3257 86.4999 12.9755H83.4329V11.9493H87.7054C87.711 12.5649 87.6145 13.1771 87.4199 13.7611ZM95.4412 16.6087L92.8956 12.9567H91.7726V16.6087H90.6615V7.40785H93.1528C93.7038 7.39868 94.2497 7.51401 94.7499 7.74522C95.2017 7.95204 95.5883 8.27835 95.8682 8.68889C96.1518 9.12217 96.2966 9.63157 96.2834 10.1492C96.2941 10.6673 96.1495 11.1768 95.8682 11.6119C95.4513 12.2227 94.812 12.646 94.087 12.7915L96.8307 16.5898L95.4412 16.6087ZM107.775 13.8697C107.553 14.4307 107.221 14.9416 106.799 15.372C106.376 15.8023 105.871 16.1435 105.314 16.3751C104.126 16.8628 102.794 16.8628 101.606 16.3751C101.048 16.1446 100.543 15.8039 100.12 15.3734C99.697 14.9429 99.3655 14.4314 99.1451 13.8697C98.6733 12.6703 98.6733 11.3368 99.1451 10.1374C99.3653 9.57645 99.6969 9.06587 100.12 8.63649C100.543 8.20711 101.048 7.86781 101.606 7.63906C102.794 7.15139 104.126 7.15139 105.314 7.63906C105.861 7.87229 106.357 8.20962 106.775 8.63227C107.199 9.06798 107.534 9.58147 107.763 10.1445C108.233 11.3443 108.233 12.6769 107.763 13.8767L107.775 13.8697ZM117.212 13.5842C117.216 14.0155 117.141 14.444 116.992 14.8487C116.854 15.223 116.639 15.5639 116.36 15.849C116.077 16.1329 115.738 16.3546 115.364 16.5002C114.535 16.821 113.615 16.821 112.786 16.5002C112.412 16.3537 112.073 16.1293 111.793 15.8419C111.519 15.5562 111.306 15.2184 111.165 14.8487C111.017 14.4437 110.943 14.0154 110.946 13.5842V7.4055H112.062V13.5842C112.038 14.1388 112.22 14.6827 112.574 15.1106C112.985 15.4826 113.52 15.6886 114.074 15.6886C114.629 15.6886 115.163 15.4826 115.574 15.1106C115.926 14.6819 116.108 14.1384 116.084 13.5842V7.4055H117.202L117.212 13.5842ZM125.768 11.6355C125.489 12.0453 125.103 12.3715 124.653 12.5792C124.152 12.8104 123.605 12.9258 123.053 12.9166H121.68V16.5804H120.555V7.37954H123.044C123.595 7.36838 124.142 7.48294 124.643 7.71455C125.095 7.92634 125.481 8.25751 125.759 8.67238C126.044 9.1052 126.19 9.61475 126.177 10.1327C126.197 10.6647 126.054 11.1901 125.766 11.6379L125.768 11.6355Z" fill="#931F2B"/>
</svg>
